          <svg
            xmlns="http://www.w3.org/2000/svg"
            width="1em"
            height="1em"
            viewBox="0 0 24 24"
          >
            <path
              fill="currentColor"
              d="M9.98 12.5V15q0 .214.144.357t.357.143t.357-.143t.143-.357v-2.5h2.5q.213 0 .357-.143T13.98 12t-.143-.357t-.357-.143h-2.5V9q0-.213-.143-.357T10.48 8.5t-.357.143T9.981 9v2.5h-2.5q-.214 0-.357.143T6.981 12t.143.357t.357.143zM5.097 19q-.69 0-1.153-.462t-.462-1.153V6.615q0-.69.462-1.152T5.096 5h10.77q.69 0 1.152.463t.463 1.153v4.653l2.342-2.342q.192-.192.444-.096t.252.369v5.6q0 .273-.252.37q-.252.095-.444-.097l-2.342-2.342v4.654q0 .69-.463 1.153T15.866 19zm0-1h10.77q.269 0 .442-.173t.173-.442V6.615q0-.269-.173-.442T15.866 6H5.096q-.269 0-.442.173t-.173.443v10.769q0 .269.173.442t.442.173m-.615 0V6z"
            />
          </svg>